<?xml version="1.0" encoding="UTF-8"?>
<svg width="800" height="600" viewBox="0 0 800 600" xmlns="http://www.w3.org/2000/svg">
  <!-- Main India outline - more accurate shape -->
  <path d="M357,102 C350,105 344,110 339,115 C332,122 327,129 323,138 C319,145 316,153 313,160 C308,172 304,184 300,196 C296,208 293,220 290,233 C288,241 287,250 287,259 C286,268 286,276 287,285 C289,298 292,311 296,323 C300,334 305,345 311,355 C316,364 323,372 329,380 C336,390 344,399 352,407 C360,415 368,422 378,426 C387,430 396,434 406,436 C415,438 423,439 432,440 C438,440 444,438 450,437 C456,435 462,434 468,431 C474,429 480,426 486,423 C492,420 497,417 503,414 C511,409 518,405 526,400 C533,395 540,389 547,384 C554,379 560,374 567,368 C578,359 588,348 597,337 C603,330 607,321 612,312 C617,303 622,295 625,285 C628,275 630,264 633,254 C636,244 638,234 641,224 C643,214 645,204 647,194 C649,185 651,175 654,166 C658,153 662,141 665,128 C668,117 670,106 673,95 C677,82 681,70 685,57 C689,45 693,33 697,20 C700,13 702,5 704,-2 C469,-2 235,-2 0,-2 C0,199 0,400 0,601 C267,601 533,601 800,601 C800,433 800,266 800,98 C734,98 669,98 603,98 C603,105 602,111 600,118 C598,126 595,133 592,140 C589,147 584,154 579,160 C575,166 570,171 564,176 C558,181 550,186 544,190 C537,195 530,199 523,202 C514,207 504,210 494,213 C485,215 476,217 467,219 C458,221 448,222 439,223 C430,224 421,224 412,224 C401,224 391,222 380,221 C371,219 362,218 353,215 C344,213 335,210 327,206 C319,202 312,197 304,192 C297,188 290,184 284,179 C278,175 274,170 268,166 C262,161 255,156 249,150 C242,144 234,139 229,132 C224,126 219,119 214,112 C209,105 205,98 200,91 C195,83 191,75 187,67 C183,59 179,51 176,42 C173,34 171,25 168,16 C166,8 164,0 164,-9 C164,-17 165,-25 166,-33 C167,-42 169,-50 172,-58 C176,-68 179,-79 184,-89 C187,-95 189,-101 194,-106 C198,-112 202,-118 207,-123 C211,-128 216,-133 221,-137 C227,-142 232,-147 239,-151 C244,-155 251,-159 258,-161 C265,-163 271,-165 278,-167 C285,-168 292,-169 298,-170 C305,-170 313,-170 320,-171 C331,-171 343,-171 354,-171 C364,-171 375,-171 385,-170 C395,-169 405,-167 415,-166 C423,-165 432,-163 441,-161 C443,-146 443,-131 443,-116 C443,-107 444,-98 444,-88 C444,-80 443,-71 442,-63 C441,-55 440,-47 438,-39 C436,-30 434,-21 431,-13 C428,-6 424,1 420,8 C416,14 412,19 407,25 C401,32 394,38 387,44 C380,49 373,55 365,61 C360,64 354,68 349,71 C344,74 339,78 334,82 C329,86 323,89 318,92 C310,97 303,104 297,112 C292,118 286,123 282,130 C278,136 274,142 270,149 C266,155 262,161 260,169 C258,175 256,182 255,190 C254,198 253,207 254,215 C254,223 256,232 258,240 C259,245 261,250 263,254 C266,261 269,268 272,275 C273,279 275,283 277,286 C279,290 282,293 284,297 C287,301 290,304 293,308 C295,312 298,317 302,320 C307,323 312,324 318,325 C323,326 329,327 335,328 C343,328 351,329 359,329 C368,330 377,329 385,329 C394,329 402,329 410,329 C419,329 427,328 435,326 C442,324 450,323 456,319 C463,315 469,311 475,306 C481,301 487,295 492,289 C495,284 498,279 500,274 C502,269 504,264 505,259 C507,254 508,249 508,244 C509,239 509,234 509,229 C509,220 509,211 508,202 C507,193 506,185 505,176 C504,167 503,158 502,149 C500,138 499,128 497,117 C496,111 495,104 494,98 C493,92 491,85 489,79 C487,73 485,66 482,61 C479,54 476,48 472,42 C469,36 465,30 460,25 C456,21 452,16 447,13 C442,10 436,8 431,5 C426,2 420,0 414,-2 C409,-3 403,-5 398,-6 C392,-7 386,-8 380,-9 C375,-9 370,-10 366,-10 C360,-11 354,-11 348,-11 C340,-10 332,-10 325,-8 C318,-7 311,-5 304,-3 C298,-1 291,1 285,4 C278,7 271,10 265,13 C258,17 252,22 245,26 C241,29 236,32 232,36 C227,39 224,43 220,47 C215,53 211,59 207,65 C204,71 201,76 198,82 C195,88 193,95 191,101 C189,109 186,116 185,124 C184,132 183,139 183,147 C183,154 184,161 186,168 C187,176 190,183 192,190 C194,197 196,204 199,210 C202,217 205,223 209,229 C212,235 217,241 221,246 C226,252 231,257 237,262 C241,266 245,270 250,273 C254,276 259,279 264,281 C269,284 274,287 279,289 C284,291 289,292 294,294 C299,296 305,297 310,297 C316,297 322,298 328,297 C334,297 339,295 344,293 C347,292 350,290 353,288 C356,286 359,284 363,282 C367,280 371,278 376,278 C381,278 387,278 392,279 C397,279 403,282 408,284 C414,286 419,289 424,293 C428,297 432,300 436,305 C441,310 446,315 448,322 C450,329 452,335 452,343 C452,349 451,356 449,362 C448,369 446,375 443,381 C440,388 438,395 434,401 C431,407 427,412 423,418 C419,424 415,429 410,434 C405,439 400,444 394,448 C389,452 383,456 377,459 C372,462 367,464 361,466 C355,469 349,471 343,472 C336,473 330,474 323,474 C319,474 315,473 311,472 C307,471 303,470 299,469 C295,467 291,465 287,463 C283,461 280,459 276,456 C273,454 269,451 266,449 C264,446 261,444 258,441 C255,438 252,434 250,431 C246,426 243,420 240,415 C237,409 235,403 233,397 C231,391 230,385 229,379 C229,373 229,367 229,360 C229,354 230,347 232,341 C233,335 235,330 238,324 C241,319 244,313 247,308 C250,303 254,297 258,293 C261,288 266,283 270,279 C274,275 278,271 283,267 C287,263 292,259 297,256 C303,252 308,248 314,244 C320,241 325,238 331,235 C335,233 340,230 345,229 C350,227 356,226 361,225 C367,225 373,225 378,226 C384,226 390,228 396,229 C402,231 409,233 415,235 C421,238 426,240 432,244 C438,248 444,252 450,256 C456,260 462,264 469,268 C475,271 482,274 489,278 C497,282 505,286 514,289 C518,291 523,293 527,294 C532,295 537,296 542,296 C547,296 552,295 557,294 C562,293 566,292 571,290 C577,288 583,285 589,282 C594,280 600,277 605,274 C611,270 617,265 623,261 C629,257 634,253 639,248 C644,242 649,237 654,231 C659,225 664,220 669,214 C673,208 678,201 682,194 C686,188 690,182 694,175 C697,168 701,162 704,155 C706,150 709,145 711,139 C713,134 714,128 716,122 C718,117 719,111 720,106 C721,100 722,94 722,88 C722,83 722,77 721,72 C720,68 720,63 719,59 C718,54 717,50 716,45 C716,37 715,28 715,20 C715,13 714,5 713,-2 C696,-2 680,-2 664,-2 C662,11 661,24 661,37 C660,46 659,55 657,64 C656,73 654,81 651,90 C649,98 646,106 642,113 C638,121 633,128 628,134 C623,141 617,147 612,153 C606,159 599,165 593,170 C587,174 581,179 574,183 C567,188 560,191 553,195 C546,198 539,201 532,204 C526,206 519,208 512,210 C505,212 497,213 490,214 C483,215 476,215 469,215 C462,215 455,214 448,213 C442,212 435,210 429,209 C422,207 416,205 410,202 C404,199 398,197 393,194 C387,191 381,188 376,185 C371,182 366,178 361,175 C356,172 351,169 347,164 C342,160 338,156 334,151 C330,147 326,143 323,138 C319,133 316,127 313,122 C311,116 308,111 307,105 C305,99 304,92 304,85 C303,79 303,73 305,67 C306,61 308,55 310,50 C313,44 315,39 319,34 C323,29 328,25 332,20 C338,16 344,12 350,9 C354,7 357,5 360,3 C364,0 368,-2 372,-5" fill="none" stroke="#444444" stroke-width="2.5" />

  <!-- Add a subtle glow/shadow effect to create depth -->
  <filter id="glow" x="-20%" y="-20%" width="140%" height="140%">
    <feGaussianBlur stdDeviation="5" result="blur" />
    <feComposite in="SourceGraphic" in2="blur" operator="over" />
  </filter>
  
  <!-- Apply the effect -->
  <path d="M357,102 C350,105 344,110 339,115 C332,122 327,129 323,138 C319,145 316,153 313,160 C308,172 304,184 300,196 C296,208 293,220 290,233 C288,241 287,250 287,259 C286,268 286,276 287,285 C289,298 292,311 296,323 C300,334 305,345 311,355 C316,364 323,372 329,380 C336,390 344,399 352,407 C360,415 368,422 378,426 C387,430 396,434 406,436 C415,438 423,439 432,440 C438,440 444,438 450,437 C456,435 462,434 468,431 C474,429 480,426 486,423 C492,420 497,417 503,414 C511,409 518,405 526,400 C533,395 540,389 547,384 C554,379 560,374 567,368 C578,359 588,348 597,337 C603,330 607,321 612,312 C617,303 622,295 625,285 C628,275 630,264 633,254 C636,244 638,234 641,224 C643,214 645,204 647,194 C649,185 651,175 654,166 C658,153 662,141 665,128 C668,117 670,106 673,95 C677,82 681,70 685,57 C689,45 693,33 697,20 C700,13 702,5 704,-2 C469,-2 235,-2 0,-2 C0,199 0,400 0,601 C267,601 533,601 800,601 C800,433 800,266 800,98 C734,98 669,98 603,98 C603,105 602,111 600,118 C598,126 595,133 592,140 C589,147 584,154 579,160 C575,166 570,171 564,176 C558,181 550,186 544,190 C537,195 530,199 523,202 C514,207 504,210 494,213 C485,215 476,217 467,219 C458,221 448,222 439,223 C430,224 421,224 412,224 C401,224 391,222 380,221 C371,219 362,218 353,215 C344,213 335,210 327,206 C319,202 312,197 304,192 C297,188 290,184 284,179 C278,175 274,170 268,166 C262,161 255,156 249,150 C242,144 234,139 229,132 C224,126 219,119 214,112 C209,105 205,98 200,91 C195,83 191,75 187,67 C183,59 179,51 176,42 C173,34 171,25 168,16 C166,8 164,0 164,-9 C164,-17 165,-25 166,-33 C167,-42 169,-50 172,-58 C176,-68 179,-79 184,-89 C187,-95 189,-101 194,-106 C198,-112 202,-118 207,-123 C211,-128 216,-133 221,-137 C227,-142 232,-147 239,-151 C244,-155 251,-159 258,-161 C265,-163 271,-165 278,-167 C285,-168 292,-169 298,-170 C305,-170 313,-170 320,-171 C331,-171 343,-171 354,-171 C364,-171 375,-171 385,-170 C395,-169 405,-167 415,-166 C423,-165 432,-163 441,-161 C443,-146 443,-131 443,-116 C443,-107 444,-98 444,-88 C444,-80 443,-71 442,-63 C441,-55 440,-47 438,-39 C436,-30 434,-21 431,-13 C428,-6 424,1 420,8 C416,14 412,19 407,25 C401,32 394,38 387,44 C380,49 373,55 365,61 C360,64 354,68 349,71 C344,74 339,78 334,82 C329,86 323,89 318,92 C310,97 303,104 297,112 C292,118 286,123 282,130 C278,136 274,142 270,149 C266,155 262,161 260,169 C258,175 256,182 255,190 C254,198 253,207 254,215 C254,223 256,232 258,240 C259,245 261,250 263,254 C266,261 269,268 272,275 C273,279 275,283 277,286 C279,290 282,293 284,297 C287,301 290,304 293,308 C295,312 298,317 302,320 C307,323 312,324 318,325 C323,326 329,327 335,328 C343,328 351,329 359,329 C368,330 377,329 385,329 C394,329 402,329 410,329 C419,329 427,328 435,326 C442,324 450,323 456,319 C463,315 469,311 475,306 C481,301 487,295 492,289 C495,284 498,279 500,274 C502,269 504,264 505,259 C507,254 508,249 508,244 C509,239 509,234 509,229 C509,220 509,211 508,202 C507,193 506,185 505,176 C504,167 503,158 502,149 C500,138 499,128 497,117 C496,111 495,104 494,98 C493,92 491,85 489,79 C487,73 485,66 482,61 C479,54 476,48 472,42 C469,36 465,30 460,25 C456,21 452,16 447,13 C442,10 436,8 431,5 C426,2 420,0 414,-2 C409,-3 403,-5 398,-6 C392,-7 386,-8 380,-9 C375,-9 370,-10 366,-10 C360,-11 354,-11 348,-11 C340,-10 332,-10 325,-8 C318,-7 311,-5 304,-3 C298,-1 291,1 285,4 C278,7 271,10 265,13 C258,17 252,22 245,26 C241,29 236,32 232,36 C227,39 224,43 220,47 C215,53 211,59 207,65 C204,71 201,76 198,82 C195,88 193,95 191,101 C189,109 186,116 185,124 C184,132 183,139 183,147 C183,154 184,161 186,168 C187,176 190,183 192,190 C194,197 196,204 199,210 C202,217 205,223 209,229 C212,235 217,241 221,246 C226,252 231,257 237,262 C241,266 245,270 250,273 C254,276 259,279 264,281 C269,284 274,287 279,289 C284,291 289,292 294,294 C299,296 305,297 310,297 C316,297 322,298 328,297 C334,297 339,295 344,293 C347,292 350,290 353,288 C356,286 359,284 363,282 C367,280 371,278 376,278 C381,278 387,278 392,279 C397,279 403,282 408,284 C414,286 419,289 424,293 C428,297 432,300 436,305 C441,310 446,315 448,322 C450,329 452,335 452,343 C452,349 451,356 449,362 C448,369 446,375 443,381 C440,388 438,395 434,401 C431,407 427,412 423,418 C419,424 415,429 410,434 C405,439 400,444 394,448 C389,452 383,456 377,459 C372,462 367,464 361,466 C355,469 349,471 343,472 C336,473 330,474 323,474 C319,474 315,473 311,472 C307,471 303,470 299,469 C295,467 291,465 287,463 C283,461 280,459 276,456 C273,454 269,451 266,449 C264,446 261,444 258,441 C255,438 252,434 250,431 C246,426 243,420 240,415 C237,409 235,403 233,397 C231,391 230,385 229,379 C229,373 229,367 229,360 C229,354 230,347 232,341 C233,335 235,330 238,324 C241,319 244,313 247,308 C250,303 254,297 258,293 C261,288 266,283 270,279 C274,275 278,271 283,267 C287,263 292,259 297,256 C303,252 308,248 314,244 C320,241 325,238 331,235 C335,233 340,230 345,229 C350,227 356,226 361,225 C367,225 373,225 378,226 C384,226 390,228 396,229 C402,231 409,233 415,235 C421,238 426,240 432,244 C438,248 444,252 450,256 C456,260 462,264 469,268 C475,271 482,274 489,278 C497,282 505,286 514,289 C518,291 523,293 527,294 C532,295 537,296 542,296 C547,296 552,295 557,294 C562,293 566,292 571,290 C577,288 583,285 589,282 C594,280 600,277 605,274 C611,270 617,265 623,261 C629,257 634,253 639,248 C644,242 649,237 654,231 C659,225 664,220 669,214 C673,208 678,201 682,194 C686,188 690,182 694,175 C697,168 701,162 704,155 C706,150 709,145 711,139 C713,134 714,128 716,122 C718,117 719,111 720,106 C721,100 722,94 722,88 C722,83 722,77 721,72 C720,68 720,63 719,59 C718,54 717,50 716,45 C716,37 715,28 715,20 C715,13 714,5 713,-2 C696,-2 680,-2 664,-2 C662,11 661,24 661,37 C660,46 659,55 657,64 C656,73 654,81 651,90 C649,98 646,106 642,113 C638,121 633,128 628,134 C623,141 617,147 612,153 C606,159 599,165 593,170 C587,174 581,179 574,183 C567,188 560,191 553,195 C546,198 539,201 532,204 C526,206 519,208 512,210 C505,212 497,213 490,214 C483,215 476,215 469,215 C462,215 455,214 448,213 C442,212 435,210 429,209 C422,207 416,205 410,202 C404,199 398,197 393,194 C387,191 381,188 376,185 C371,182 366,178 361,175 C356,172 351,169 347,164 C342,160 338,156 334,151 C330,147 326,143 323,138 C319,133 316,127 313,122 C311,116 308,111 307,105 C305,99 304,92 304,85 C303,79 303,73 305,67 C306,61 308,55 310,50 C313,44 315,39 319,34 C323,29 328,25 332,20 C338,16 344,12 350,9 C354,7 357,5 360,3 C364,0 368,-2 372,-5" fill="#e0f7fa" stroke="#757575" stroke-width="1.5" filter="url(#glow)" />
  
  <!-- Major River Lines - Ganges, Brahmaputra, etc. -->
  <path d="M600,150 C550,170 500,190 450,210 C400,230 350,250 300,300 C280,320 260,350 240,380" fill="none" stroke="#0288d1" stroke-width="2" opacity="0.8" />
  <path d="M500,100 C480,150 460,200 440,250 C420,300 400,350 380,400" fill="none" stroke="#0288d1" stroke-width="2" opacity="0.8" />
  <path d="M650,250 C600,270 550,290 500,320 C450,350 400,380 350,410" fill="none" stroke="#0288d1" stroke-width="2" opacity="0.8" />
  
  <!-- State Borders (subtle but more visible) -->
  <path d="M350,200 C400,190 450,185 500,200" fill="none" stroke="#9e9e9e" stroke-width="1" stroke-dasharray="4,3" />
  <path d="M450,250 C500,230 550,220 600,240" fill="none" stroke="#9e9e9e" stroke-width="1" stroke-dasharray="4,3" />
  <path d="M400,300 C450,320 500,330 550,320" fill="none" stroke="#9e9e9e" stroke-width="1" stroke-dasharray="4,3" />
  <path d="M300,350 C350,340 400,350 450,370" fill="none" stroke="#9e9e9e" stroke-width="1" stroke-dasharray="4,3" />
  <path d="M350,400 C400,390 450,380 500,390" fill="none" stroke="#9e9e9e" stroke-width="1" stroke-dasharray="4,3" />
</svg> 